<svg width="1000" height="302" viewBox="0 0 1000 302" fill="none" xmlns="http://www.w3.org/2000/svg">
<g clip-path="url(#clip0)">
<path fill-rule="evenodd" clip-rule="evenodd" d="M620.38 235.668C562.269 278.501 478.039 301.354 405.52 301.354C303.835 301.354 212.293 263.745 143.037 201.193C137.596 196.274 142.472 189.571 149.001 193.401C223.741 236.887 316.154 263.048 411.614 263.048C475.994 263.048 546.816 249.728 611.936 222.087C621.773 217.908 630 228.529 620.38 235.668Z" fill="#F8C611"/>
<path fill-rule="evenodd" clip-rule="evenodd" d="M644.539 208.027C637.139 198.538 595.438 203.544 576.721 205.764C571.018 206.46 570.148 201.498 575.284 197.928C608.497 174.553 662.996 181.3 669.351 189.135C675.706 197.014 667.697 251.643 636.486 277.718C631.698 281.722 627.127 279.589 629.26 274.279C636.269 256.78 651.983 217.56 644.539 208.027Z" fill="#F8C611"/>
<path fill-rule="evenodd" clip-rule="evenodd" d="M578.026 32.9084V10.1861C578.026 6.74727 580.638 4.44022 583.772 4.44022H685.5C688.765 4.44022 691.377 6.7908 691.377 10.1861V29.6437C691.333 32.9084 688.591 37.1743 683.716 43.9213L631.002 119.184C650.59 118.705 671.266 121.621 689.026 131.633C693.031 133.897 694.119 137.205 694.424 140.469V164.715C694.424 168.024 690.767 171.898 686.937 169.895C655.639 153.485 614.069 151.7 579.463 170.069C575.937 171.985 572.237 168.154 572.237 164.846V141.819C572.237 138.119 572.28 131.807 575.98 126.192L637.052 38.6108H583.903C580.638 38.6108 578.026 36.3037 578.026 32.9084Z" fill="white"/>
<path fill-rule="evenodd" clip-rule="evenodd" d="M206.939 174.684H175.989C173.029 174.466 170.679 172.246 170.461 169.416V10.5779C170.461 7.40024 173.116 4.87551 176.424 4.87551H205.284C208.288 5.00601 210.682 7.31315 210.9 10.1861V30.9496H211.466C218.996 10.8826 233.143 1.52374 252.209 1.52374C271.58 1.52374 283.681 10.8826 292.387 30.9496C299.874 10.8826 316.894 1.52374 335.133 1.52374C348.104 1.52374 362.295 6.87785 370.957 18.892C380.751 32.2555 378.749 51.6696 378.749 68.6896L378.705 168.938C378.705 172.115 376.05 174.684 372.742 174.684H341.836C338.745 174.466 336.264 171.985 336.264 168.938V84.7519C336.264 78.0484 336.874 61.3331 335.394 54.9778C333.087 44.3131 326.165 41.3096 317.198 41.3096C309.711 41.3096 301.876 46.3155 298.698 54.3249C295.521 62.3343 295.826 75.7413 295.826 84.7519V168.938C295.826 172.115 293.17 174.684 289.862 174.684H258.956C255.822 174.466 253.384 171.985 253.384 168.938L253.341 84.7519C253.341 67.0354 256.257 40.9613 234.275 40.9613C212.032 40.9613 212.902 66.3825 212.902 84.7519V168.938C212.902 172.115 210.247 174.684 206.939 174.684" fill="white"/>
<path fill-rule="evenodd" clip-rule="evenodd" d="M778.958 1.52374C824.881 1.52374 849.737 40.9613 849.737 91.1072C849.737 139.555 822.27 177.992 778.958 177.992C733.861 177.992 709.311 138.554 709.311 89.4095C709.311 39.9602 734.166 1.52374 778.958 1.52374ZM779.219 33.9531C756.41 33.9531 754.973 65.0331 754.973 84.4037C754.973 103.818 754.668 145.258 778.958 145.258C802.943 145.258 804.074 111.827 804.074 91.4554C804.074 78.0484 803.508 62.0296 799.46 49.319C795.978 38.2625 789.057 33.9531 779.219 33.9531Z" fill="white"/>
<path fill-rule="evenodd" clip-rule="evenodd" d="M909.285 174.684H878.466C875.375 174.466 872.894 171.985 872.894 168.938L872.851 10.0555C873.112 7.13903 875.68 4.87551 878.814 4.87551H907.5C910.199 5.00601 912.419 6.83434 913.028 9.31551V33.6049H913.594C922.257 11.8837 934.401 1.52374 955.774 1.52374C969.66 1.52374 983.198 6.52963 991.904 20.2414C1000 32.9519 1000 54.3249 1000 69.6907V169.678C999.652 172.464 997.084 174.684 994.036 174.684H963C960.171 174.466 957.82 172.377 957.515 169.678V83.4025C957.515 66.0343 959.518 40.6131 938.145 40.6131C930.614 40.6131 923.693 45.6625 920.254 53.3237C915.901 63.0308 915.335 72.6943 915.335 83.4025V168.938C915.292 172.115 912.593 174.684 909.285 174.684" fill="white"/>
<path fill-rule="evenodd" clip-rule="evenodd" d="M496.931 98.8119C496.931 110.869 497.236 120.925 491.142 131.633C486.223 140.339 478.388 145.693 469.725 145.693C457.842 145.693 450.877 136.639 450.877 123.275C450.877 96.8966 474.514 92.1084 496.931 92.1084V98.8119ZM528.142 174.248C526.096 176.076 523.136 176.207 520.829 174.988C510.556 166.457 508.684 162.495 503.069 154.355C486.092 171.68 474.035 176.86 452.052 176.86C425.978 176.86 405.737 160.798 405.737 128.63C405.737 103.513 419.318 86.406 438.732 78.0484C455.535 70.6484 478.997 69.3425 496.931 67.2966V63.2919C496.931 55.9354 497.497 47.2296 493.144 40.8743C489.401 35.1719 482.175 32.8214 475.776 32.8214C463.979 32.8214 453.489 38.8719 450.921 51.4084C450.398 54.1943 448.352 56.9366 445.523 57.0672L415.531 53.846C413.007 53.2802 410.177 51.2343 410.917 47.3602C417.795 10.9696 450.703 0.000213623 480.129 0.000213623C495.19 0.000213623 514.865 4.00492 526.749 15.4096C541.81 29.4696 540.373 48.2307 540.373 68.646V116.877C540.373 131.372 546.38 137.727 552.039 145.562C553.998 148.348 554.433 151.7 551.909 153.789C545.597 159.057 534.366 168.851 528.185 174.335L528.142 174.248" fill="white"/>
<path fill-rule="evenodd" clip-rule="evenodd" d="M91.194 98.8119C91.194 110.869 91.4987 120.925 85.4046 131.633C80.4858 140.339 72.694 145.693 63.9881 145.693C52.1046 145.693 45.1835 136.639 45.1835 123.275C45.1835 96.8966 68.8199 92.1084 91.194 92.1084V98.8119ZM122.405 174.248C120.359 176.076 117.399 176.207 115.092 174.988C104.819 166.457 102.99 162.495 97.3316 154.355C80.3552 171.68 68.3411 176.86 46.3152 176.86C20.2847 176.86 0 160.798 0 128.63C0 103.513 13.6247 86.406 32.9952 78.0484C49.7976 70.6484 73.2599 69.3425 91.194 67.2966V63.2919C91.194 55.9354 91.7599 47.2296 87.4505 40.8743C83.6634 35.1719 76.4376 32.8214 70.0823 32.8214C58.2858 32.8214 47.7517 38.8719 45.1835 51.4084C44.6611 54.1943 42.6152 56.9366 39.8294 57.0672L9.79411 53.846C7.2694 53.2802 4.48352 51.2343 5.17999 47.3602C12.1012 10.9696 44.9658 0.000213623 74.3917 0.000213623C89.4528 0.000213623 109.128 4.00492 121.012 15.4096C136.073 29.4696 134.636 48.2307 134.636 68.646V116.877C134.636 131.372 140.643 137.727 146.302 145.562C148.305 148.348 148.74 151.7 146.215 153.789C139.903 159.057 128.673 168.851 122.492 174.335L122.405 174.248" fill="white"/>
</g>
<defs>
<clipPath id="clip0">
<rect width="1000" height="301.354" fill="white"/>
</clipPath>
</defs>
</svg>
